<?xml version="1.0" encoding="UTF-8"?><svg xmlns="http://www.w3.org/2000/svg" viewBox="0 0 720.25 280.24"><g id="a"/><g id="b"><g id="c"><g><g><path d="M164.85,260.63c0-7.43,5.7-13.2,13.02-13.2s13.02,5.77,13.02,13.2-5.7,13.2-13.02,13.2-13.02-5.77-13.02-13.2Zm13.02,8.65c4.53,0,7.94-3.73,7.94-8.65s-3.4-8.65-7.94-8.65-7.94,3.73-7.94,8.65,3.4,8.65,7.94,8.65Z" fill="#fff"/><path d="M193.78,254.97h4.66v3.12c.86-2.29,2.62-3.53,5.14-3.53,1.34,0,3.1,.29,4.14,.95l-1.52,4.37c-.99-.52-2.24-.81-3.42-.81-2.62,0-4.19,2.33-4.19,6.41v7.79h-4.8v-18.31Z" fill="#fff"/><path d="M211.18,246.67c1.72,0,3.05,1.27,3.05,2.88s-1.33,2.88-3.05,2.88-3.03-1.27-3.03-2.88,1.31-2.88,3.03-2.88Zm-2.4,8.29h4.8v18.25h-4.8v-18.25Z" fill="#fff"/><path d="M217.12,274.92l4.53-1.42c.75,1.61,2.33,2.58,4.39,2.58,3.08,0,5.21-1.99,5.21-4.93v-1.58c-1.47,1.63-3.62,2.56-6.2,2.56-5.05,0-8.74-3.73-8.74-8.81s3.69-8.81,8.74-8.81c2.56,0,4.69,.93,6.16,2.54v-2.1h4.77l-.02,16.19c0,5.43-3.94,9.08-9.89,9.08-4.44,0-7.63-1.97-8.96-5.32Zm9.06-6.81c2.96,0,5.05-1.97,5.05-4.78s-2.1-4.78-5.05-4.78-5.02,1.97-5.02,4.78,2.06,4.78,5.02,4.78Z" fill="#fff"/><path d="M241.86,246.67c1.72,0,3.05,1.27,3.05,2.88s-1.33,2.88-3.05,2.88-3.03-1.27-3.03-2.88,1.31-2.88,3.03-2.88Zm-2.4,8.29h4.8v18.25h-4.8v-18.25Z" fill="#fff"/><path d="M247.76,254.97h4.66v3.12c1.22-2.2,3.56-3.55,6.14-3.55,4.23,0,6.93,3.05,6.93,7.77v10.96h-4.8v-9.78c0-2.88-1.5-4.69-3.91-4.69s-4.23,1.93-4.23,4.66v9.82h-4.8v-18.31Z" fill="#fff"/><path d="M283.08,271.09c-1.56,1.68-3.74,2.67-6.25,2.67-5.05,0-8.87-4.1-8.87-9.62s3.82-9.62,8.87-9.62c2.42,0,4.51,.91,6.07,2.47v-2.02h4.76v18.31h-4.59v-2.19Zm-5.12-1.52c2.97,0,5.12-2.31,5.12-5.43s-2.15-5.43-5.12-5.43-5.12,2.31-5.12,5.43,2.15,5.43,5.12,5.43Z" fill="#fff"/><path d="M291.34,247.21h4.8v26.06h-4.8v-26.06Z" fill="#fff"/><path d="M308.06,247.98h18.16v4.42h-13.22v6.34h11.43v4.42h-11.43v10.1h-4.94v-25.29Z" fill="#fff"/><path d="M331.26,246.67c1.72,0,3.05,1.27,3.05,2.88s-1.33,2.88-3.05,2.88-3.03-1.27-3.03-2.88,1.31-2.88,3.03-2.88Zm-2.4,8.29h4.8v18.25h-4.8v-18.25Z" fill="#fff"/><path d="M337.42,247.21h4.8v26.06h-4.8v-26.06Z" fill="#fff"/><path d="M345.89,254.97h4.62v2.88c1.15-2.04,3.3-3.33,5.57-3.33,2.87,0,4.96,1.27,6.05,3.56,1.24-2.28,3.4-3.56,6.25-3.56,4.28,0,6.88,2.92,6.88,7.74v11.02h-4.77v-10.21c0-2.51-1.43-4.28-3.49-4.28-2.4,0-4.05,1.81-4.05,4.42v10.07h-4.77v-10.21c0-2.51-1.43-4.28-3.49-4.28-2.38,0-4.05,1.79-4.05,4.35v10.14h-4.76v-18.31Z" fill="#fff"/><path d="M386.38,247.21h4.76v9.78c1.56-1.56,3.65-2.47,6.07-2.47,5.05,0,8.87,4.1,8.87,9.62s-3.82,9.62-8.87,9.62c-2.51,0-4.69-.99-6.25-2.67v2.19h-4.59v-26.06Zm9.71,22.36c2.97,0,5.12-2.31,5.12-5.43s-2.15-5.43-5.12-5.43-5.12,2.31-5.12,5.43,2.15,5.43,5.12,5.43Z" fill="#fff"/><path d="M413.98,272.65l-7.7-17.72h5.14l5.07,12.34,5.11-12.34h4.96l-8.06,18.34-2.69,6.41h-5.02l3.19-7.04Z" fill="#fff"/><path d="M452.48,247.05c2.29-1,4.59-1.68,6.81-2.08,.38-.07,.7,.25,.63,.61l-1.54,7.2c7.43-1.15,13.83,.82,15.8,5.46,2.63,6.2-3.58,14.74-13.88,19.1-2.31,.99-4.6,1.67-6.83,2.06-.38,.07-.68-.25-.61-.61l1.52-7.18c-7.43,1.15-13.83-.84-15.8-5.46-2.62-6.2,3.6-14.74,13.9-19.1Zm28.59,11.89h3.94v7.56c0,4.68,2.63,7.31,7.31,7.31,1.83,0,3.51-.47,4.78-1.45l-1.72-3.58c-.81,.59-1.58,.81-2.63,.81-1.84,0-2.92-1.16-2.92-3.15v-7.49h6v-3.98h-6v-6.07l-4.82,1.29v4.78h-3.94v3.98Zm16.32,5.2c0,5.5,4.26,9.62,10.01,9.62s10.01-4.12,10.01-9.62-4.26-9.62-10.01-9.62-10.01,4.12-10.01,9.62Zm4.87,0c0-3.05,2.2-5.32,5.14-5.32s5.14,2.28,5.14,5.32-2.2,5.32-5.14,5.32-5.14-2.28-5.14-5.32Zm16.43,4.82c.66,2.99,3.78,4.8,8.28,4.8,5.12,0,8.28-2.28,8.28-6.05,0-2.58-1.93-4.37-5.12-5.09l-4.17-.95c-1.24-.29-1.99-.73-1.99-1.58,0-1.09,1.11-1.86,2.76-1.86,1.97,0,3.39,.95,3.67,2.38l4.5-1.22c-.82-3.01-3.94-4.87-8.03-4.87-4.59,0-7.7,2.42-7.7,6.02,0,2.58,2.08,4.39,5.46,5.11l3.56,.75c1.43,.3,2.36,.88,2.36,1.68,0,1.09-1.33,1.92-3.15,1.92-2.24,0-3.62-.84-3.92-2.33l-4.78,1.29Zm17.75,0c.66,2.99,3.78,4.8,8.28,4.8,5.12,0,8.28-2.28,8.28-6.05,0-2.58-1.93-4.37-5.12-5.09l-4.17-.95c-1.24-.29-1.99-.73-1.99-1.58,0-1.09,1.11-1.86,2.76-1.86,1.97,0,3.39,.95,3.67,2.38l4.5-1.22c-.82-3.01-3.94-4.87-8.03-4.87-4.59,0-7.7,2.42-7.7,6.02,0,2.58,2.08,4.39,5.46,5.11l3.56,.75c1.43,.3,2.36,.88,2.36,1.68,0,1.09-1.33,1.92-3.15,1.92-2.24,0-3.62-.84-3.92-2.33l-4.78,1.29Z" fill="#fff"/></g><g><g><path d="M290.47,14.65h-18.06V0h52.55V14.65h-18.06V60.13h-16.44V14.65Z" fill="#fff"/><path d="M332.44,0h16.44V22.57h22.19V0h16.44V60.13h-16.44v-22.74h-22.19v22.74h-16.44V0Z" fill="#fff"/><path d="M398.6,0h45.74V14.22h-29.3v8.69h25.89v14.14h-25.89v8.86h29.98v14.22h-46.42V0Z" fill="#fff"/></g><g><path d="M0,170.53l26.09-6.58c2.19,8.13,7,12.58,13.57,12.58,8.34,0,12.94-5.73,12.94-16.26v-61.01h27.29v59.53c0,26.8-15.27,42.49-41.22,42.49-19.02,0-32.88-11.03-38.67-30.75Z" fill="#fff"/><path d="M93.97,149.04c0-29.84,23.33-52.81,53.24-52.81s53.24,22.98,53.24,52.81-23.33,52.81-53.24,52.81-53.24-22.98-53.24-52.81Zm53.24,28.07c14.07,0,25.1-12.02,25.1-28.07s-11.03-28.07-25.1-28.07-25.1,12.02-25.1,28.07,11.03,28.07,25.1,28.07Z" fill="#fff"/><path d="M214.54,155.97v-56.7h27.29v56.35c0,12.3,7.14,20.64,17.89,20.64s17.89-8.34,17.89-20.64v-56.35h27.29v56.7c0,26.8-18.31,45.32-45.18,45.32s-45.18-18.52-45.18-45.32Z" fill="#fff"/><path d="M322.8,99.27h51.47c18.67,0,32.31,13.5,32.31,32.45,0,14.28-7.78,25.45-19.51,30.12,2.19,2.62,4.24,5.09,5.3,6.65l21.14,30.61h-31.46l-23.12-34.93h-9.12v34.93h-27.01V99.27Zm46.38,42.77c5.87,0,10.53-4.24,10.53-10.32s-4.67-10.32-10.53-10.32h-19.37v20.64h19.37Z" fill="#fff"/><path d="M423.84,99.27h27.29l39.88,61.16c-.28-3.04-.42-6.36-.42-9.69v-51.47h26.72v99.83h-27.29l-39.88-61.16c.28,3.04,.42,6.36,.42,9.69v51.47h-26.72V99.27Z" fill="#fff"/><path d="M535.78,99.27h75.93v23.61h-48.64v14.42h42.98v23.47h-42.98v14.71h49.77v23.61h-77.06V99.27Z" fill="#fff"/><path d="M656.55,159.79l-36.41-60.52h31.53l18.81,35.07,18.81-35.07h30.97l-36.41,60.52v39.31h-27.29v-39.31Z" fill="#fff"/></g></g></g></g></g></svg>